# xmcd
#
# Track frame offsets:
#	150
#	11985
#	31716
#	46128
#	62236
#	80810
#	102779
#	123036
#	139546
#	159569
#	176205
#	192297
#	212189
# Disc length: 3239 seconds
# Revision: 1
# Processed by: cddbd v1.5.2PL0 Copyright (c) Steve Scherf et al.
#
# Submitted via: libkcddb 0.31
#
DISCID=af0ca50d
DTITLE=Myslovitz - Hapiness is easy
DYEAR=2006
DGENRE=Rock
TTITLE0=Fikcja jest modna
TTITLE1=Ściąć wysokie drzewa
TTITLE2=Mieć czy być
TTITLE3=Spacer w bokserskich rękawicach
TTITLE4=Kilka uścisków, kilka snów
TTITLE5=Myslovitz, Maria Peszek - W deszczu maleńkich, żółtych kwiatów
TTITLE6=Gadające głowy 80-08
TTITLE7=Ty i ja i wszystko co mamy
TTITLE8=Nocnym pociągiem aż do końca świata
TTITLE9=Książę życia umiera
TTITLE10=Złe mi się śni
TTITLE11=Myslovitz, Maciek Cie?lak - Znów wszystko poszło nie tak
TTITLE12=Czytanka dla niegrzecznych
EXTD=
EXTT0=
EXTT1=
EXTT2=
EXTT3=
EXTT4=
EXTT5=
EXTT6=
EXTT7=
EXTT8=
EXTT9=
EXTT10=
EXTT11=
EXTT12=
PLAYORDER=
